HIERARCHY
ROOT hip
{
	OFFSET 0.000000 0.000000 0.000000
	CHANNELS 6 Xposition Yposition Zposition Xrotation Zrotation Yrotation 
	JOINT abdomen
	{
		OFFSET 0.000000 3.422050 0.000000
		CHANNELS 3 Xrotation Zrotation Yrotation 
		JOINT chest
		{
			OFFSET 0.000000 8.486693 -0.684411
			CHANNELS 3 Xrotation Zrotation Yrotation 
			JOINT neck
			{
				OFFSET 0.000000 10.266162 -0.273764
				CHANNELS 3 Xrotation Zrotation Yrotation 
				JOINT head
				{
					OFFSET 0.000000 3.148285 0.000000
					CHANNELS 3 Xrotation Zrotation Yrotation 
					End Site
					{
						OFFSET 0.000000 3.148289 0.000000
					}
				}
			}
			JOINT lCollar
			{
				OFFSET 3.422053 6.707223 -0.821293
				CHANNELS 3 Yrotation Zrotation Xrotation 
				JOINT lShldr
				{
					OFFSET 3.285171 0.000000 0.000000
					CHANNELS 3 Zrotation Yrotation Xrotation 
					JOINT lForeArm
					{
						OFFSET 10.129278 0.000000 0.000000
						CHANNELS 3 Yrotation Zrotation Xrotation 
						JOINT lHand
						{
							OFFSET 8.486692 0.000000 0.000000
							CHANNELS 3 Zrotation Yrotation Xrotation 
							End Site
							{
								OFFSET 4.106464 0.000000 0.000000
							}
						}
					}
				}
			}
			JOINT rCollar
			{
				OFFSET -3.558935 6.707223 -0.821293
				CHANNELS 3 Yrotation Zrotation Xrotation 
				JOINT rShldr
				{
					OFFSET -3.148289 0.000000 0.000000
					CHANNELS 3 Zrotation Yrotation Xrotation 
					JOINT rForeArm
					{
						OFFSET -10.266159 0.000000 0.000000
						CHANNELS 3 Yrotation Zrotation Xrotation 
						JOINT rHand
						{
							OFFSET -8.349810 0.000000 0.000000
							CHANNELS 3 Zrotation Yrotation Xrotation 
							End Site
							{
								OFFSET -4.106464 0.000000 0.000000
							}
						}
					}
				}
			}
		}
	}
	JOINT lThigh
	{
		OFFSET 5.338403 -1.642589 1.368821
		CHANNELS 3 Xrotation Zrotation Yrotation 
		JOINT lShin
		{
			OFFSET -2.053232 -20.121670 0.000000
			CHANNELS 3 Xrotation Zrotation Yrotation 
			JOINT lFoot
			{
				OFFSET 0.000000 -19.300380 -1.231939
				CHANNELS 3 Xrotation Yrotation Zrotation 
				End Site
				{
					OFFSET 0.000000 -2.463878 4.653993
				}
			}
		}
	}
	JOINT rThigh
	{
		OFFSET -5.338403 -1.642589 1.368821
		CHANNELS 3 Xrotation Zrotation Yrotation 
		JOINT rShin
		{
			OFFSET 2.053232 -20.121670 0.000000
			CHANNELS 3 Xrotation Zrotation Yrotation 
			JOINT rFoot
			{
				OFFSET 0.000000 -19.300380 -1.231939
				CHANNELS 3 Xrotation Yrotation Zrotation 
				End Site
				{
					OFFSET 0.000000 -2.463878 4.653993
				}
			}
		}
	}
}
MOTION
Frames: 6
Frame Time: 0.049897
5.698099 13.776472 -1.114389 0.000000 0.000000 0.000000 -0.599808 -7.119222 -1.201352 0.736330 7.943660 -3.765433 -0.008743 0.033225 -0.000003 -4.064824 17.457855 -23.400017 -32.986668 17.301271 -8.472301 -41.953922 -16.334965 -2.237918 -116.359077 16.600258 -47.205318 -10.861561 -23.630392 32.543076 -0.609109 -5.118771 -1.604320 -13.314580 14.537551 -4.557720 159.201813 -63.699486 1.727650 -25.568239 17.444658 17.013191 -56.807087 -9.080515 31.172020 145.947189 5.988170 -0.526132 61.365677 47.325016 -39.787529 -63.453331 -19.647522 31.835621 145.946945 -5.985850 0.521767 41.366524 5.669621 -9.805617 
5.698099 13.776472 -1.114389 0.000000 0.000000 0.000000 -0.599808 -7.119222 -1.201352 0.736330 7.943660 -3.765433 -0.008743 0.033225 -0.000003 -3.968560 17.254883 -23.093836 -33.052460 17.150682 -8.463234 -37.586018 -16.373285 -2.287783 -116.556801 18.404886 -51.040840 -11.037393 -23.668673 32.578861 -0.609109 -5.118771 -1.604320 -13.314580 14.537551 -4.557720 159.201813 -63.699486 1.727650 -23.828594 17.329580 15.329210 -56.807087 -9.080515 31.172020 145.947189 5.988170 -0.526132 61.365677 47.325016 -39.787529 -63.453331 -19.647522 31.835621 145.946945 -5.985850 0.521767 41.366524 5.669621 -9.805617 
5.698099 13.776472 -1.114389 0.000000 0.000000 0.000000 -0.599808 -7.119222 -1.201352 0.736330 7.943660 -3.765433 -0.008743 0.033225 -0.000003 -3.873482 17.051304 -22.788170 -33.118202 17.000055 -8.454352 -33.198147 -16.407995 -2.340790 -116.627678 20.223242 -54.923416 -11.213271 -23.706839 32.614777 -0.609109 -5.118771 -1.604320 -13.314580 14.537551 -4.557720 159.201813 -63.699486 1.727650 -22.084986 17.263325 13.641216 -56.807087 -9.080515 31.172020 145.947189 5.988170 -0.526132 61.365677 47.325016 -39.787529 -63.453331 -19.647522 31.835621 145.946945 -5.985850 0.521767 41.366524 5.669621 -9.805617 
5.698099 13.776472 -1.114389 0.000000 0.000000 0.000000 -0.599808 -7.119222 -1.201352 0.736330 7.943660 -3.765433 -0.008743 0.033225 -0.000003 -3.779591 16.847132 -22.483019 -33.183868 16.849380 -8.445658 -28.803110 -16.438753 -2.396502 -116.566467 22.041935 -58.851521 -11.389201 -23.744904 32.650837 -0.609109 -5.118771 -1.604320 -13.314580 14.537551 -4.557720 159.201813 -63.699486 1.727650 -20.340479 17.246153 11.952272 -56.807087 -9.080515 31.172020 145.947189 5.988170 -0.526132 61.365677 47.325016 -39.787529 -63.453331 -19.647522 31.835621 145.946945 -5.985850 0.521767 41.366524 5.669621 -9.805617 
5.698099 13.776472 -1.114389 0.000000 0.000000 0.000000 -0.599808 -7.119222 -1.201352 0.736330 7.943660 -3.765433 -0.008743 0.033225 -0.000003 -3.686887 16.642370 -22.178383 -33.249474 16.698666 -8.437148 -24.413799 -16.465292 -2.454432 -116.369118 23.847269 -62.823471 -11.565180 -23.782864 32.687023 -0.609109 -5.118771 -1.604320 -13.314580 14.537551 -4.557720 159.201813 -63.699486 1.727650 -18.598162 17.278023 10.265458 -56.807087 -9.080515 31.172020 145.947189 5.988170 -0.526132 61.365677 47.325016 -39.787529 -63.453331 -19.647522 31.835621 145.946945 -5.985850 0.521767 41.366524 5.669621 -9.805617 
5.698099 13.776472 -1.114389 0.000000 0.000000 0.000000 -0.599808 -7.119222 -1.201352 0.736330 7.943660 -3.765433 -0.008743 0.033225 -0.000003 -3.595369 16.437035 -21.874252 -33.315022 16.547909 -8.428823 -20.043034 -16.487410 -2.514050 -116.033005 25.625547 -66.837288 -11.741199 -23.820709 32.723339 -0.609109 -5.118771 -1.604320 -13.314580 14.537551 -4.557720 159.201813 -63.699486 1.727650 -16.861090 17.358603 8.583837 -56.807087 -9.080515 31.172020 145.947189 5.988170 -0.526132 61.365677 47.325016 -39.787529 -63.453331 -19.647522 31.835621 145.946945 -5.985850 0.521767 41.366524 5.669621 -9.805617 
